<svg width="72" height="24" viewBox="0 0 72 24" fill="none" xmlns="http://www.w3.org/2000/svg">
<path d="M17.7976 6.425C18.0142 6.425 18.1809 6.525 18.2976 6.725C18.4309 6.925 18.4976 7.2 18.4976 7.55C18.4976 8.21667 18.3392 8.73333 18.0226 9.1C17.3059 9.98333 16.5309 10.7083 15.6976 11.275C14.8809 11.8417 13.9476 12.125 12.8976 12.125C12.0142 12.125 11.2976 11.8083 10.7476 11.175C9.79756 11.7917 8.80589 12.1083 7.77256 12.125C7.55589 15.3417 7.06423 18.025 6.29756 20.175C5.53089 22.3417 4.40589 23.425 2.92256 23.425C2.02256 23.425 1.35589 23.1 0.922559 22.45C0.489225 21.8 0.272559 20.9 0.272559 19.75C0.272559 18.1167 0.647559 16.2083 1.39756 14.025C2.14756 11.8583 3.30589 9.46667 4.87256 6.85C4.87256 4.41667 4.85589 2.725 4.82256 1.775C4.80589 1.29167 4.99756 0.908333 5.39756 0.625C5.79756 0.341666 6.29756 0.199999 6.89756 0.199999C7.24756 0.199999 7.49756 0.274999 7.64756 0.424999C7.81423 0.558333 7.90589 0.833333 7.92256 1.25C7.92256 1.66667 7.93089 1.975 7.94756 2.175C8.48089 1.50833 9.00589 1.03333 9.52256 0.75C10.0392 0.449999 10.5892 0.299999 11.1726 0.299999C12.1059 0.299999 12.8642 0.675 13.4476 1.425C14.0476 2.175 14.3476 3.15833 14.3476 4.375C14.3476 5.25833 14.2059 6.11667 13.9226 6.95C13.6392 7.78333 13.2476 8.54167 12.7476 9.225C13.0976 9.325 13.3892 9.375 13.6226 9.375C14.1726 9.375 14.6976 9.175 15.1976 8.775C15.6976 8.375 16.3392 7.70833 17.1226 6.775C17.3226 6.54167 17.5476 6.425 17.7976 6.425ZM7.89756 9.725C8.49756 9.59167 9.04756 9.26667 9.54756 8.75C10.0642 8.21667 10.4726 7.56667 10.7726 6.8C11.0726 6.01667 11.2226 5.2 11.2226 4.35C11.2226 3.85 11.1226 3.475 10.9226 3.225C10.7226 2.95833 10.4559 2.825 10.1226 2.825C9.52256 2.825 8.79756 3.45833 7.94756 4.725C7.93089 5.45833 7.92256 6.53333 7.92256 7.95C7.92256 8.71667 7.91423 9.30833 7.89756 9.725ZM3.12256 20.975C3.57256 20.975 3.94756 19.9917 4.24756 18.025C4.54756 16.075 4.73923 13.6417 4.82256 10.725C4.10589 12.3917 3.53923 13.9833 3.12256 15.5C2.70589 17.0167 2.49756 18.2917 2.49756 19.325C2.49756 19.8583 2.56423 20.2667 2.69756 20.55C2.81423 20.8333 2.95589 20.975 3.12256 20.975ZM19.5587 12.125C18.5254 12.125 17.7004 11.75 17.0837 11C16.467 10.25 16.1587 9.26667 16.1587 8.05C16.1587 6.71667 16.467 5.45833 17.0837 4.275C17.7004 3.075 18.517 2.11667 19.5337 1.4C20.567 0.666666 21.6587 0.299999 22.8087 0.299999C23.1754 0.299999 23.417 0.374999 23.5337 0.524999C23.667 0.658333 23.7754 0.908333 23.8587 1.275C24.2087 1.20833 24.5754 1.175 24.9587 1.175C25.7754 1.175 26.1837 1.46667 26.1837 2.05C26.1837 2.4 26.0587 3.23333 25.8087 4.55C25.4254 6.46667 25.2337 7.8 25.2337 8.55C25.2337 8.8 25.292 9 25.4087 9.15C25.542 9.3 25.7087 9.375 25.9087 9.375C26.2254 9.375 26.6087 9.175 27.0587 8.775C27.5087 8.35833 28.117 7.69167 28.8837 6.775C29.0837 6.54167 29.3087 6.425 29.5587 6.425C29.7754 6.425 29.942 6.525 30.0587 6.725C30.192 6.925 30.2587 7.2 30.2587 7.55C30.2587 8.21667 30.1004 8.73333 29.7837 9.1C29.1004 9.95 28.3754 10.6667 27.6087 11.25C26.842 11.8333 26.1004 12.125 25.3837 12.125C24.8337 12.125 24.3254 11.9417 23.8587 11.575C23.4087 11.1917 23.067 10.675 22.8337 10.025C21.967 11.425 20.8754 12.125 19.5587 12.125ZM20.4587 9.6C20.8254 9.6 21.1754 9.38333 21.5087 8.95C21.842 8.51667 22.0837 7.94167 22.2337 7.225L23.1587 2.625C22.4587 2.64167 21.8087 2.90833 21.2087 3.425C20.6254 3.925 20.1587 4.59167 19.8087 5.425C19.4587 6.25833 19.2837 7.14167 19.2837 8.075C19.2837 8.59167 19.3837 8.975 19.5837 9.225C19.8004 9.475 20.092 9.6 20.4587 9.6ZM30.0019 12.125C29.3685 12.125 28.9185 11.7917 28.6519 11.125C28.4019 10.4583 28.2769 9.39167 28.2769 7.925C28.2769 5.75833 28.5852 3.7 29.2019 1.75C29.3519 1.26667 29.5935 0.916666 29.9269 0.699999C30.2769 0.466666 30.7602 0.349999 31.3769 0.349999C31.7102 0.349999 31.9435 0.391666 32.0769 0.474999C32.2102 0.558333 32.2769 0.716666 32.2769 0.949999C32.2769 1.21667 32.1519 1.81667 31.9019 2.75C31.7352 3.41667 31.6019 4 31.5019 4.5C31.4019 5 31.3185 5.61667 31.2519 6.35C31.8019 4.91667 32.4185 3.75 33.1019 2.85C33.7852 1.95 34.4519 1.30833 35.1019 0.925C35.7685 0.541666 36.3769 0.349999 36.9269 0.349999C38.0102 0.349999 38.5519 0.891666 38.5519 1.975C38.5519 2.19167 38.4769 2.71667 38.3269 3.55C38.1935 4.21667 38.1269 4.63333 38.1269 4.8C38.1269 5.38333 38.3352 5.675 38.7519 5.675C39.2185 5.675 39.8185 5.30833 40.5519 4.575C40.7685 4.35833 40.9935 4.25 41.2269 4.25C41.4435 4.25 41.6102 4.35 41.7269 4.55C41.8602 4.73333 41.9269 4.98333 41.9269 5.3C41.9269 5.91667 41.7602 6.4 41.4269 6.75C40.9602 7.23333 40.4102 7.65 39.7769 8C39.1602 8.33333 38.5019 8.5 37.8019 8.5C36.9185 8.5 36.2435 8.275 35.7769 7.825C35.3269 7.375 35.1019 6.76667 35.1019 6C35.1019 5.75 35.1269 5.5 35.1769 5.25C35.2102 4.91667 35.2269 4.69167 35.2269 4.575C35.2269 4.30833 35.1352 4.175 34.9519 4.175C34.7019 4.175 34.3685 4.45833 33.9519 5.025C33.5519 5.575 33.1519 6.30833 32.7519 7.225C32.3519 8.14167 32.0269 9.10833 31.7769 10.125C31.5935 10.9083 31.3769 11.4417 31.1269 11.725C30.8935 11.9917 30.5185 12.125 30.0019 12.125ZM52.9798 4.4C53.0298 4.38333 53.1131 4.375 53.2298 4.375C53.4798 4.375 53.6715 4.45833 53.8048 4.625C53.9381 4.79167 54.0048 5.01667 54.0048 5.3C54.0048 5.81667 53.9048 6.225 53.7048 6.525C53.5048 6.80833 53.2048 7.01667 52.8048 7.15C52.0381 7.4 51.2215 7.525 50.3548 7.525C49.6215 7.525 48.9298 7.425 48.2798 7.225C47.7965 8.00833 47.2631 8.81667 46.6798 9.65C46.0131 10.6 45.4381 11.25 44.9548 11.6C44.4715 11.95 43.9215 12.125 43.3048 12.125C42.6215 12.125 42.0798 11.8583 41.6798 11.325C41.2965 10.7917 41.0548 9.95 40.9548 8.8C40.7548 6.46667 40.6548 4.425 40.6548 2.675V1.8C40.6715 1.25 40.8215 0.866666 41.1048 0.649999C41.3881 0.433333 41.8131 0.325 42.3798 0.325C42.8131 0.325 43.1298 0.425 43.3298 0.625C43.5465 0.808333 43.6548 1.125 43.6548 1.575C43.6548 3.49167 43.7715 5.98333 44.0048 9.05C45.0048 7.56667 45.7548 6.38333 46.2548 5.5C46.0048 5.01667 45.8798 4.44167 45.8798 3.775C45.8798 3.20833 46.0048 2.65833 46.2548 2.125C46.5048 1.59167 46.8465 1.15833 47.2798 0.824999C47.7131 0.491666 48.2048 0.325 48.7548 0.325C49.2381 0.325 49.6298 0.5 49.9298 0.85C50.2298 1.18333 50.3798 1.675 50.3798 2.325C50.3798 3.075 50.1798 3.93333 49.7798 4.9C50.4131 4.86667 51.2548 4.74167 52.3048 4.525L52.9798 4.4ZM62.9853 6.425C63.2019 6.425 63.3686 6.525 63.4853 6.725C63.6186 6.925 63.6853 7.2 63.6853 7.55C63.6853 8.21667 63.5269 8.73333 63.2103 9.1C62.5936 9.85 61.7186 10.5417 60.5853 11.175C59.4686 11.8083 58.2686 12.125 56.9853 12.125C55.2353 12.125 53.8769 11.65 52.9103 10.7C51.9436 9.75 51.4603 8.45 51.4603 6.8C51.4603 5.65 51.7019 4.58333 52.1853 3.6C52.6686 2.6 53.3353 1.80833 54.1853 1.225C55.0519 0.641666 56.0269 0.349999 57.1103 0.349999C58.0769 0.349999 58.8519 0.641666 59.4353 1.225C60.0186 1.79167 60.3103 2.56667 60.3103 3.55C60.3103 4.7 59.8936 5.69167 59.0603 6.525C58.2436 7.34167 56.8519 7.99167 54.8853 8.475C55.3019 9.24167 56.0936 9.625 57.2603 9.625C58.0103 9.625 58.8603 9.36667 59.8103 8.85C60.7769 8.31667 61.6103 7.625 62.3103 6.775C62.5103 6.54167 62.7353 6.425 62.9853 6.425ZM56.6853 2.8C56.0686 2.8 55.5436 3.15833 55.1103 3.875C54.6936 4.59167 54.4853 5.45833 54.4853 6.475V6.525C55.4686 6.29167 56.2436 5.94167 56.8103 5.475C57.3769 5.00833 57.6603 4.46667 57.6603 3.85C57.6603 3.53333 57.5686 3.28333 57.3853 3.1C57.2186 2.9 56.9853 2.8 56.6853 2.8ZM70.1997 9.275C70.5664 9.25833 70.8414 9.39167 71.0247 9.675C71.2247 9.94167 71.3247 10.275 71.3247 10.675C71.3247 11.0917 71.2247 11.4583 71.0247 11.775C70.8414 12.0917 70.583 12.25 70.2497 12.25C69.6497 12.25 69.083 12.2417 68.5497 12.225C68.033 12.2083 67.5747 12.1917 67.1747 12.175C65.6414 12.1083 64.558 12.075 63.9247 12.075C63.708 12.075 63.3914 12.15 62.9747 12.3C62.4414 12.4667 62.0747 12.55 61.8747 12.55C60.9914 12.55 60.5497 11.9833 60.5497 10.85C60.5497 10.0833 60.8247 9.21667 61.3747 8.25C61.9247 7.26667 62.6414 6.31667 63.5247 5.4C64.408 4.48333 65.3247 3.71667 66.2747 3.1L62.7497 3.2C62.383 3.21667 62.0997 3.09167 61.8997 2.825C61.7164 2.54167 61.6247 2.20833 61.6247 1.825C61.6247 1.425 61.7164 1.075 61.8997 0.774999C62.0997 0.458333 62.3664 0.299999 62.6997 0.299999C63.433 0.299999 64.3414 0.358333 65.4247 0.474999C65.608 0.491666 65.9997 0.525 66.5997 0.575C67.2164 0.624999 67.783 0.649999 68.2997 0.649999C68.4664 0.649999 68.783 0.583333 69.2497 0.45C69.333 0.433333 69.4914 0.391666 69.7247 0.325C69.9747 0.258333 70.183 0.225 70.3497 0.225C70.6164 0.225 70.833 0.341666 70.9997 0.575C71.183 0.808333 71.2747 1.16667 71.2747 1.65C71.2747 2.18333 71.1414 2.60833 70.8747 2.925C70.6247 3.24167 70.2414 3.525 69.7247 3.775C69.1414 4.04167 68.458 4.5 67.6747 5.15C66.8914 5.8 66.1497 6.525 65.4497 7.325C64.7497 8.10833 64.233 8.85 63.8997 9.55L70.1997 9.275Z" fill="black"/>
</svg>
